<svg xmlns="http://www.w3.org/2000/svg" width="237" height="331" viewBox="0 0 237 331" fill="none">
<path d="M4.8 308.641V287.391H1.3V283.141H4.8V282.091C4.8 279.957 5.13333 278.107 5.8 276.541C6.5 274.974 7.46667 273.774 8.7 272.941C9.96667 272.074 11.45 271.641 13.15 271.641C14.2167 271.641 15.2667 271.791 16.3 272.091C17.3333 272.357 18.3167 272.741 19.25 273.241L18.05 277.341C17.55 277.007 16.95 276.757 16.25 276.591C15.5833 276.391 14.9333 276.291 14.3 276.291C13.0333 276.291 12.05 276.774 11.35 277.741C10.65 278.707 10.3 280.107 10.3 281.941V283.141H17V287.391H10.3V308.641H4.8ZM20.4934 297.441V292.491H35.4434V297.441H20.4934ZM65.7383 308.641H60.2383V293.991C60.2383 291.557 59.8383 289.774 59.0383 288.641C58.2716 287.507 57.1216 286.941 55.5883 286.941C54.5216 286.941 53.4549 287.207 52.3883 287.741C51.3549 288.274 50.4216 289.007 49.5883 289.941C48.7549 290.841 48.1549 291.891 47.7883 293.091V308.641H42.2883V282.491H47.2883V287.741C47.9549 286.574 48.8216 285.574 49.8883 284.741C50.9883 283.874 52.2216 283.207 53.5883 282.741C54.9549 282.274 56.4049 282.041 57.9383 282.041C59.5049 282.041 60.7883 282.324 61.7883 282.891C62.8216 283.457 63.6216 284.241 64.1883 285.241C64.7883 286.207 65.1883 287.341 65.3883 288.641C65.6216 289.907 65.7383 291.257 65.7383 292.691V308.641ZM84.4723 309.141C82.4389 309.141 80.5889 308.791 78.9223 308.091C77.2889 307.357 75.8723 306.374 74.6723 305.141C73.4723 303.874 72.5389 302.441 71.8723 300.841C71.2389 299.207 70.9223 297.474 70.9223 295.641C70.9223 293.174 71.4889 290.924 72.6223 288.891C73.7556 286.824 75.3389 285.174 77.3723 283.941C79.4056 282.674 81.7889 282.041 84.5223 282.041C87.2556 282.041 89.6056 282.674 91.5723 283.941C93.5723 285.174 95.1223 286.807 96.2223 288.841C97.3223 290.874 97.8723 293.057 97.8723 295.391C97.8723 295.791 97.8556 296.174 97.8223 296.541C97.7889 296.874 97.7556 297.157 97.7223 297.391H76.7723C76.8723 298.924 77.2889 300.274 78.0223 301.441C78.7889 302.574 79.7556 303.474 80.9223 304.141C82.0889 304.774 83.3389 305.091 84.6723 305.091C86.1389 305.091 87.5223 304.724 88.8223 303.991C90.1556 303.257 91.0556 302.291 91.5223 301.091L96.2223 302.441C95.6556 303.707 94.7889 304.857 93.6223 305.891C92.4889 306.891 91.1389 307.691 89.5723 308.291C88.0056 308.857 86.3056 309.141 84.4723 309.141ZM76.6223 293.741H92.4223C92.3223 292.241 91.8889 290.924 91.1223 289.791C90.3889 288.624 89.4389 287.724 88.2723 287.091C87.1389 286.424 85.8723 286.091 84.4723 286.091C83.1056 286.091 81.8389 286.424 80.6723 287.091C79.5389 287.724 78.6056 288.624 77.8723 289.791C77.1389 290.924 76.7223 292.241 76.6223 293.741ZM117.164 307.291C116.698 307.524 116.114 307.774 115.414 308.041C114.714 308.307 113.914 308.541 113.014 308.741C112.148 308.941 111.248 309.041 110.314 309.041C109.181 309.041 108.131 308.841 107.164 308.441C106.198 308.041 105.414 307.407 104.814 306.541C104.248 305.641 103.964 304.491 103.964 303.091V286.741H100.514V282.491H103.964V273.891H109.464V282.491H115.164V286.741H109.464V301.341C109.531 302.241 109.814 302.907 110.314 303.341C110.848 303.774 111.498 303.991 112.264 303.991C113.031 303.991 113.764 303.857 114.464 303.591C115.164 303.324 115.681 303.107 116.014 302.941L117.164 307.291ZM154.025 282.491H159.275L148.275 308.641H143.575L138.875 296.841L134.175 308.641H129.475L118.425 282.491H123.675L132.075 303.291L135.775 293.641L131.275 282.541H135.925L138.875 290.691L141.775 282.541H146.425L141.975 293.641L145.675 303.291L154.025 282.491ZM174.3 309.141C172.233 309.141 170.383 308.791 168.75 308.091C167.117 307.357 165.7 306.357 164.5 305.091C163.333 303.824 162.433 302.391 161.8 300.791C161.167 299.157 160.85 297.424 160.85 295.591C160.85 293.757 161.167 292.024 161.8 290.391C162.433 288.757 163.333 287.324 164.5 286.091C165.7 284.824 167.117 283.841 168.75 283.141C170.417 282.407 172.267 282.041 174.3 282.041C176.333 282.041 178.167 282.407 179.8 283.141C181.467 283.841 182.883 284.824 184.05 286.091C185.25 287.324 186.167 288.757 186.8 290.391C187.433 292.024 187.75 293.757 187.75 295.591C187.75 297.424 187.433 299.157 186.8 300.791C186.167 302.391 185.25 303.824 184.05 305.091C182.883 306.357 181.467 307.357 179.8 308.091C178.167 308.791 176.333 309.141 174.3 309.141ZM166.5 295.641C166.5 297.307 166.85 298.807 167.55 300.141C168.25 301.474 169.183 302.524 170.35 303.291C171.517 304.057 172.833 304.441 174.3 304.441C175.733 304.441 177.033 304.057 178.2 303.291C179.4 302.491 180.35 301.424 181.05 300.091C181.75 298.724 182.1 297.224 182.1 295.591C182.1 293.924 181.75 292.424 181.05 291.091C180.35 289.757 179.4 288.707 178.2 287.941C177.033 287.141 175.733 286.741 174.3 286.741C172.833 286.741 171.517 287.141 170.35 287.941C169.183 288.741 168.25 289.807 167.55 291.141C166.85 292.441 166.5 293.941 166.5 295.641ZM207.828 287.241C205.695 287.274 203.795 287.757 202.128 288.691C200.495 289.624 199.328 290.941 198.628 292.641V308.641H193.128V282.491H198.228V288.341C199.128 286.541 200.311 285.107 201.778 284.041C203.245 282.941 204.795 282.341 206.428 282.241C206.761 282.241 207.028 282.241 207.228 282.241C207.461 282.241 207.661 282.257 207.828 282.291V287.241ZM230.529 308.641L222.129 296.591L217.829 300.691V308.641H212.329V272.141H217.829V295.141L229.929 282.541H235.829L225.679 293.491L236.379 308.641H230.529Z" fill="white"/>
<path d="M115 15C115 15 115 15 115 3.32753e-06V15H198.265C205.301 15 206.454 15.0843 207.1 15.223C210.946 16.0492 213.951 19.0537 214.777 22.8998C214.916 23.5455 215 24.6992 215 31.7352C215 38.7711 214.916 39.9249 214.777 40.5705C213.951 44.4167 210.946 47.4212 207.1 48.2473C206.454 48.3861 205.306 48.4704 198.287 48.4704H198.054H197.82H197.585H197.35H197.115H196.879H196.642H196.405H196.167H195.929H195.69H195.45H195.211H194.97H194.729H194.488H194.246H194.003H193.76H193.517H193.273H193.028H192.783H192.538H192.292H192.046H191.799H191.551H191.303H191.055H190.806H190.557H190.307H190.057H189.807H189.555H189.304H189.052H188.8H188.547H188.294H188.04H187.786H187.531H187.276H187.021H186.765H186.509H186.252H185.995H185.738H185.48H185.222H184.964H184.705H184.445H184.186H183.926H183.665H183.404H183.143H182.882H182.62H182.358H182.095H181.832H181.569H181.305H181.041H180.777H180.513H180.248H179.982H179.717H179.451H179.185H178.918H178.651H178.384H178.117H177.849H177.581H177.313H177.044H176.776H176.507H176.237H175.967H175.698H175.427H175.157H174.886H174.615H174.344H174.073H173.801H173.529H173.257H172.984H172.712H172.439H172.166H171.893H171.619H171.345H171.071H170.797H170.523H170.248H169.974H169.699H169.424H169.148H168.873H168.597H168.321H168.045H167.769H167.493H167.216H166.94H166.663H166.386H166.109H165.832H165.554H165.277H164.999H164.721H164.443H164.165H163.887H163.609H163.33H163.052H162.773H162.495H162.216H161.937H161.658H161.379H161.1H160.82H160.541H160.262H159.982H159.702H159.423H159.143H158.863H158.584H158.304H158.024H157.744H157.464H157.184H156.904H156.624H156.344H156.064H155.783H155.503H155.223H154.943H154.663H154.382H154.102H153.822H153.542H153.262H152.982H152.701H152.421H152.141H151.861H151.581H151.301H151.021H150.741H150.461H150.181H149.901H149.622H149.342H149.062H148.783H148.503H148.224H147.945H147.665H147.386H147.107H146.828H146.549H146.27H145.991H145.713H145.434H145.156H144.878H144.599H144.321H144.043H143.766H143.488H143.21H142.933H142.656H142.378H142.102H141.825H141.548H141.271H140.995H140.719H140.443H140.167H139.891H139.616H139.34H139.065H138.79H138.516H138.241H137.967H137.692H137.418H137.145H136.871H136.598H136.325H136.052H135.779H135.507H135.234H134.962H134.691H134.419H134.148H133.877H133.606H133.336H133.065H132.796H132.526H132.256H131.987H131.718H131.45H131.181H130.913H130.646H130.378H130.111H129.844H129.578H129.311H129.045H128.78H128.515H128.25H127.985H127.721H127.457H127.193H126.93H126.667H126.404H126.142H125.88H125.618H125.357H125.096H124.836H124.575H124.316H124.056H123.797H123.539H123.281H123.023H122.765H122.508H122.252H121.995H121.739H121.484H121.229H120.974H120.72H120.466H120.213H119.96H119.708H119.456H119.204H118.953H118.702H118.452H118.202H117.953H117.704H117.456H117.208H116.96H116.713H116.467H116.221H115.975H115.73H115.485H115.241H114.998H114.755H114.512H114.27H114.028H113.787H113.547H113.307H113.067H112.829H112.59H112.352H112.115H111.878H111.642H111.406H111.171H110.937H110.703H110.469H110.236H110.004H109.772H109.541H109.31H109.08H108.851H108.622H108.394H108.166H107.939H107.713H107.487H107.262H107.037H106.813H106.59H106.367H106.145H105.924H105.703H105.483H105.263H105.044H104.826H104.608H104.391H104.175H103.959H103.744H103.53H103.317H103.104H102.891H102.68H102.469H102.259H102.049H101.84H101.632H101.425H101.218H101.012H100.807H100.602H100.399H100.195H99.993H99.7914H99.5905H99.3903H99.1909H98.9922H98.7942H98.597H98.4006H98.2049H98.01H97.8158H97.6225H97.4299H97.238H97.047H96.8567H96.6672H96.4785H96.2906H96.1035H95.9172H95.7317H95.547H95.3631H95.18H94.9977H94.8163H94.6357H94.4559H94.2769H94.0988H93.9215H93.745H93.5694H93.3947H93.2208H93.0477H92.8755H92.7042H92.5337H92.3641H92.1954H92.0275H91.8605H91.6944H91.5292H91.3649H91.2015H91.0389H90.8773H90.7166H90.5567H90.3978H90.2398H90.0827H89.9265H89.7713H89.6169H89.4635H89.3111H89.1595H89.0089H88.8593H88.7106H88.5628H88.416H88.2702H88.1253H87.9814H87.8384H87.6965H87.5555H87.4154H87.2764H87.1383H87.0012H86.8652H86.7301H86.596H86.4629H86.3308H86.1997H86.0696H85.9406H85.8125H85.6855H85.5595H85.4346H85.3106H85.1878H85.0659H84.9451H84.8253H84.7066H84.5889H84.4723H84.3568H84.2423H84.1288H84.0165H83.9052H83.795H83.6859H83.5778H83.4709H83.365H83.2602H83.1566H83.054H82.9525H82.8522H82.7529H82.6548H82.5577H82.4618H82.3671H82.2734H82.1809H82.0895H81.9993H81.9102H81.8222H81.7354H81.6497H81.5652H81.4819H81.3997H81.3187H81.2388H81.1601H81.0826H81.0063C57.1231 48.4704 38.4159 56.4522 24.2813 68.8548C20.8917 71.829 17.8074 75.0188 15 78.3567V50C15 37.7908 15.0319 30.1429 15.7815 24.5669C16.4732 19.4224 17.5193 18.3386 17.9289 17.9289C18.3383 17.5196 19.4222 16.4733 24.5677 15.7816C30.1445 15.0319 37.7935 15 50.0039 15L52.7987 15L92.3074 15L108.434 15L113.247 15H114.548H114.885H114.971H114.993H114.998H115Z" fill="white" stroke="white" stroke-width="30"/>
<path d="M15 172.771C15 166.61 15.0085 162.756 15.2119 159.838C15.4056 157.058 15.7224 156.264 15.7942 156.095C16.8069 153.707 18.7073 151.807 21.0945 150.794C21.2637 150.722 22.0584 150.406 24.838 150.212C27.7564 150.008 31.6099 150 37.7714 150L66.0353 150L77.5721 150L81.0151 150H81.9457H82.1871H82.2485H82.264H82.2679H82.2689C82.2691 150 82.2692 150 82.2692 135V150H134.566C139.755 150 140.613 150.046 141.094 150.122C145.38 150.797 148.742 154.158 149.417 158.444C149.492 158.925 149.538 159.783 149.538 164.972C149.538 170.161 149.492 171.019 149.417 171.5C148.742 175.786 145.38 179.148 141.094 179.822C140.613 179.898 139.756 179.944 134.57 179.944H134.403H134.236H134.069H133.901H133.733H133.565H133.397H133.228H133.059H132.89H132.721H132.551H132.381H132.211H132.041H131.87H131.7H131.529H131.358H131.186H131.015H130.843H130.671H130.498H130.326H130.153H129.98H129.807H129.634H129.46H129.287H129.113H128.939H128.765H128.59H128.415H128.241H128.065H127.89H127.715H127.539H127.363H127.188H127.011H126.835H126.659H126.482H126.305H126.128H125.951H125.774H125.596H125.419H125.241H125.063H124.885H124.707H124.528H124.35H124.171H123.992H123.814H123.634H123.455H123.276H123.096H122.917H122.737H122.557H122.377H122.197H122.017H121.836H121.656H121.475H121.295H121.114H120.933H120.752H120.571H120.389H120.208H120.026H119.845H119.663H119.481H119.3H119.118H118.936H118.753H118.571H118.389H118.207H118.024H117.842H117.659H117.476H117.294H117.111H116.928H116.745H116.562H116.379H116.196H116.012H115.829H115.646H115.462H115.279H115.095H114.912H114.728H114.545H114.361H114.177H113.994H113.81H113.626H113.442H113.258H113.074H112.89H112.707H112.523H112.339H112.154H111.97H111.786H111.602H111.418H111.234H111.05H110.866H110.682H110.498H110.314H110.129H109.945H109.761H109.577H109.393H109.209H109.025H108.841H108.657H108.473H108.289H108.105H107.921H107.737H107.553H107.369H107.185H107.001H106.818H106.634H106.45H106.267H106.083H105.899H105.716H105.532H105.349H105.166H104.982H104.799H104.616H104.433H104.25H104.067H103.884H103.701H103.518H103.335H103.153H102.97H102.787H102.605H102.423H102.24H102.058H101.876H101.694H101.512H101.33H101.148H100.967H100.785H100.604H100.423H100.241H100.06H99.8791H99.6982H99.5174H99.3367H99.1561H98.9756H98.7953H98.615H98.4349H98.255H98.0751H97.8954H97.7158H97.5363H97.357H97.1778H96.9987H96.8198H96.641H96.4624H96.2839H96.1056H95.9274H95.7493H95.5714H95.3937H95.2161H95.0387H94.8615H94.6844H94.5074H94.3307H94.1541H93.9776H93.8014H93.6253H93.4494H93.2737H93.0981H92.9227H92.7476H92.5725H92.3977H92.2231H92.0487H91.8744H91.7004H91.5265H91.3529H91.1794H91.0062H90.8331H90.6603H90.4876H90.3152H90.143H89.971H89.7992H89.6276H89.4563H89.2851H89.1142H88.9436H88.7731H88.6029H88.4329H88.2631H88.0936H87.9243H87.7552H87.5864H87.4178H87.2495H87.0814H86.9136H86.746H86.5787H86.4116H86.2448H86.0782H85.9119H85.7458H85.58H85.4145H85.2492H85.0843H84.9195H84.7551H84.5909H84.427H84.2634H84.1H83.937H83.7742H83.6117H83.4495H83.2876H83.126H82.9646H82.8036H82.6429H82.4824H82.3223H82.1625H82.0029H81.8437H81.6848H81.5262H81.3679H81.2099H81.0522H80.8949H80.7378H80.5811H80.4247H80.2687H80.1129H79.9575H79.8025H79.6477H79.4933H79.3392H79.1855H79.0321H78.8791H78.7264H78.574H78.422H78.2703H78.119H77.9681H77.8175H77.6672H77.5173H77.3678H77.2186H77.0698H76.9214H76.7733H76.6257H76.4783H76.3314H76.1848H76.0386H75.8928H75.7474H75.6024H75.4577H75.3134H75.1696H75.0261H74.883H74.7403H74.598H74.4561H74.3146H74.1735H74.0328H73.8925H73.7526H73.6131H73.4741H73.3354H73.1972H73.0594H72.922H72.785H72.6485H72.5124H72.3767H72.2414H72.1066H71.9722H71.8382H71.7047H71.5716H71.439H71.3068H71.175H71.0437H70.9128H70.7824H70.6524H70.5229H70.3939H70.2653H70.1371H70.0095H69.8823H69.7555H69.6292H69.5034H69.3781H69.2532H69.1288H69.0049H68.8815H68.7585H68.6361H68.5141H68.3926H68.2716H68.151H68.031H67.9115H67.7924H67.6739H67.5558H67.4383H67.3212H67.2047H67.0887H66.9732H66.8582H66.7437H66.6297H66.5162H66.4033H66.2908H66.1789H66.0676H65.9567H65.8464H65.7366H65.6273H65.5186H65.4104H65.3027H65.1956H65.089H64.983H64.8775H64.7725H64.6682H64.5643H64.461H64.3583H64.2561H64.1545H64.0534H63.9529H63.853H63.7536H63.6548H63.5566H63.4589H63.3618H63.2653H63.1693H63.074H62.9792H62.885H62.7914H62.6984H62.6059H62.5141H62.4228H62.3322H62.2421H62.1527H62.0638H61.9755H61.8879H61.8008H61.7144H61.6285H61.5433H61.4587H61.3747H61.2913H61.2086H61.1264H61.0449H60.964H60.8837H60.8041H60.7251H60.6467H60.569H60.4918H60.4154H60.3395H60.2644H60.1898H60.1159H60.0427H59.9701H59.8981H59.8268H59.7562H59.6862H59.6168H59.5482H59.4802H59.4128H59.3461H59.2801H59.2148H59.1501H59.0861H59.0228H58.9602H58.8982H58.8369H58.7763H58.7164H58.6572H58.5987H58.5408H58.4837H58.4272H58.3714H58.3164H58.262H58.2084H58.1554H58.1032H58.0516H58.0008H57.9507C39.5841 179.944 25.3861 187.678 15 198.757V172.771Z" fill="white" stroke="white" stroke-width="30"/>
</svg>